<svg xmlns="http://www.w3.org/2000/svg" version="1.1" xmlns:xlink="http://www.w3.org/1999/xlink" xmlns:svgjs="http://svgjs.dev/svgjs" width="2000" height="2000" viewBox="0 0 2000 2000"><g transform="matrix(1,0,0,1,0,0)"><svg viewBox="0 0 280 280" data-background-color="#af6834" preserveAspectRatio="xMidYMid meet" height="2000" width="2000" xmlns="http://www.w3.org/2000/svg" xmlns:xlink="http://www.w3.org/1999/xlink"><g id="tight-bounds" transform="matrix(1,0,0,1,0,0)"><svg viewBox="0 0 280 280" height="280" width="280"><g><svg viewBox="0 0 280 280" height="280" width="280"><g><svg viewBox="0 0 280 280" height="280" width="280"><g id="textblocktransform"><svg viewBox="0 0 280 280" height="280" width="280" id="textblock"><g><svg viewBox="0 0 280 280" height="280" width="280"><g transform="matrix(1,0,0,1,90.50252531694167,96.88929624378791)"><svg viewBox="0 0 98.99494936611666 86.22140751242418" height="86.22140751242418" width="98.99494936611666"><g id="icon-0"><svg xmlns="http://www.w3.org/2000/svg" xmlns:xlink="http://www.w3.org/1999/xlink" version="1.1" x="0" y="0" viewBox="1 5 62 54" style="enable-background:new 0 0 64 64;" xml:space="preserve" height="86.22140751242418" width="98.99494936611666" class="icon-xg-0" data-fill-palette-color="accent" id="xg-0"><path d="M56 57H12c-0.5 0-1 0.5-1 1s0.5 1 1 1h44c0.5 0 1-0.5 1-1S56.5 57 56 57z" fill="#211f1f" data-fill-palette-color="accent"></path><path d="M62 57h-2c-0.6 0-1 0.4-1 1s0.4 1 1 1h2c0.6 0 1-0.4 1-1S62.6 57 62 57z" fill="#211f1f" data-fill-palette-color="accent"></path><path d="M8 57H2c-0.6 0-1 0.4-1 1s0.4 1 1 1h6c0.6 0 1-0.4 1-1S8.6 57 8 57z" fill="#211f1f" data-fill-palette-color="accent"></path><path d="M17 49l3.4 0.9 7.7-2.1L18 45.2c-0.5-0.1-2.1-0.1-2.4 1.4C15.2 48.2 16.5 48.9 17 49z" fill="#211f1f" data-fill-palette-color="accent"></path><path d="M48.4 55.4c0.4-1.6-0.9-2.3-1.4-2.4 0 0-3.4-0.9-3.4-0.9l-7.7 2.1L46 56.8C46.5 56.9 48.1 56.8 48.4 55.4z" fill="#211f1f" data-fill-palette-color="accent"></path><path d="M15.6 55.4c0.3 1.6 1.9 1.5 2.4 1.4L47 49c0.5-0.1 1.8-0.8 1.4-2.4-0.4-1.9-2.3-1.5-2.4-1.4L17 53C15.9 53.2 15.4 54.3 15.6 55.4z" fill="#211f1f" data-fill-palette-color="accent"></path><path d="M29.8 17.9c0.5-0.6 1.3-0.9 2.2-0.9s1.6 0.4 2.2 0.9c0 0 1.7-2.5 1.7-2.5 0.8-1.2 1.2-2.5 1.2-3.9V10c0-2.8-2.2-5-5-5s-5 2.2-5 5v1.6c0 1.4 0.4 2.7 1.2 3.9C28.2 15.5 29.8 17.9 29.8 17.9z" fill="#211f1f" data-fill-palette-color="accent"></path><path d="M33 20c0-0.5-0.5-1-1-1s-1 0.5-1 1c0 0.3 0.4 1.2 1 2.1C32.6 21.2 33 20.3 33 20z" fill="#211f1f" data-fill-palette-color="accent"></path><path d="M27.1 23c0.5 2.3 2.5 4 4.9 4s4.4-1.7 4.9-4h-3.1c-0.4 0.6-0.8 1.2-1 1.6C32.6 24.8 32.3 25 32 25s-0.6-0.2-0.8-0.4c-0.3-0.4-0.6-0.9-1-1.6H27.1z" fill="#211f1f" data-fill-palette-color="accent"></path><path d="M3.5 33.9l8.8 6.9c0.3 0.2 0.8 0.3 1.3 0.2 0.5-0.1 0.8-0.4 1.1-0.8 0 0 6.6-8.8 6.6-8.8 0.3-0.4 0.7-0.5 1.1-0.4 0.4 0.1 0.7 0.5 0.7 1l0 12.5 9 2.4 9-2.4L41 32c0-0.4 0.3-0.8 0.7-1 0.4-0.1 0.9 0 1.1 0.4 0 0 6.6 8.7 6.6 8.8 0.2 0.4 0.6 0.7 1.1 0.8 0.5 0.1 0.9 0 1.3-0.2l8.7-6.8c0.3-0.3 0.8-1 0.3-1.8-0.5-0.7-1.5-0.6-1.9-0.3l-6.2 5c-0.2 0.2-0.9 0.5-1.4-0.2l-7.8-10.9c-1.1-1.5-2.7-2.4-4.5-2.7-0.5 3.4-3.4 6-6.9 6s-6.4-2.6-6.9-6c-1.8 0.2-3.4 1.2-4.5 2.7l-7.8 10.9c-0.2 0.2-0.8 0.7-1.4 0.2l-6.2-5c-0.4-0.3-1.5-0.4-1.9 0.2C2.7 32.9 3.2 33.7 3.5 33.9zM25 34c0-0.5 0.5-1 1-1s1 0.5 1 1v2c0 0.5-0.5 1-1 1s-1-0.5-1-1V34zM25 40c0-0.5 0.5-1 1-1s1 0.5 1 1v1.3l3.3 1.1c0.5 0.2 0.8 0.7 0.6 1.3-0.3 0.8-1.2 0.7-1.3 0.6l-4-1.3c-0.4-0.1-0.7-0.5-0.7-1V40z" fill="#211f1f" data-fill-palette-color="accent"></path></svg></g></svg></g><g id="text-0"><path d="M13.702 94.283l5.578 1.715c0.21 0.365 0.394 0.754 0.552 1.169 0.158 0.415 0.269 0.851 0.333 1.31 0.064 0.459 0.076 0.942 0.037 1.45-0.032 0.51-0.133 1.039-0.301 1.588v0c-0.292 0.95-0.753 1.712-1.384 2.286-0.626 0.584-1.365 1-2.218 1.251-0.844 0.246-1.774 0.34-2.789 0.285-1.013-0.063-2.051-0.257-3.114-0.585v0c-0.669-0.206-1.301-0.448-1.896-0.725-0.593-0.285-1.132-0.604-1.616-0.958-0.489-0.363-0.911-0.763-1.267-1.202-0.36-0.447-0.637-0.939-0.831-1.475-0.187-0.533-0.284-1.112-0.29-1.736-0.01-0.633 0.095-1.31 0.317-2.032v0c0.232-0.756 0.573-1.434 1.022-2.036 0.448-0.601 0.973-1.07 1.573-1.405v0l0.789 1.22c-0.311 0.249-0.619 0.586-0.925 1.011-0.3 0.428-0.544 0.949-0.734 1.564v0c-0.164 0.535-0.238 1.025-0.221 1.469 0.01 0.442 0.097 0.85 0.261 1.223 0.157 0.37 0.381 0.703 0.671 0.996 0.281 0.299 0.615 0.57 1.002 0.814 0.386 0.243 0.813 0.462 1.28 0.657 0.467 0.195 0.958 0.371 1.473 0.529v0c0.455 0.14 0.927 0.259 1.416 0.359 0.498 0.095 0.991 0.158 1.479 0.191 0.49 0.026 0.965 0.004 1.426-0.067 0.459-0.064 0.882-0.19 1.269-0.378 0.387-0.188 0.73-0.445 1.028-0.771 0.293-0.334 0.518-0.756 0.674-1.264v0c0.09-0.294 0.15-0.594 0.178-0.901 0.024-0.315 0.021-0.616-0.008-0.903-0.027-0.294-0.073-0.56-0.138-0.8-0.065-0.24-0.144-0.436-0.237-0.589v0l-3.451-1.061-1.143 3.042-1.284-0.395z" fill="#211f1f" data-fill-palette-color="primary"></path><path d="M23.051 84.442l-7.596-3.272 0.542-1.789 10.632 4.58-0.735 1.706-1.706-0.735 0.763 1.014c0.046 0.088 0.089 0.217 0.13 0.388 0.035 0.167 0.06 0.365 0.076 0.593 0.007 0.232-0.01 0.483-0.051 0.755-0.044 0.278-0.131 0.568-0.261 0.87v0c-0.329 0.765-0.724 1.353-1.183 1.765-0.459 0.412-0.953 0.69-1.48 0.836-0.525 0.14-1.073 0.166-1.645 0.08-0.569-0.093-1.124-0.256-1.664-0.488v0l-6.362-2.741 0.542-1.789 6.555 2.823c0.411 0.177 0.799 0.295 1.162 0.353 0.364 0.058 0.704 0.037 1.021-0.063 0.324-0.097 0.617-0.283 0.881-0.558 0.266-0.282 0.506-0.67 0.719-1.165v0c0.158-0.366 0.246-0.713 0.265-1.04 0.019-0.327 0-0.628-0.056-0.904-0.056-0.276-0.138-0.52-0.244-0.733-0.109-0.207-0.211-0.369-0.305-0.486z" fill="#211f1f" data-fill-palette-color="primary"></path><path d="M20.084 72.022l2.02 1.162-0.948-1.635c-0.027-0.234-0.017-0.482 0.029-0.746 0.043-0.258 0.111-0.509 0.205-0.755 0.09-0.255 0.196-0.501 0.316-0.738 0.121-0.237 0.24-0.459 0.358-0.666v0c0.258-0.449 0.499-0.819 0.724-1.109 0.218-0.294 0.42-0.533 0.606-0.717 0.186-0.183 0.348-0.324 0.486-0.423 0.134-0.092 0.246-0.161 0.336-0.206v0l2.818 1.017-0.593 1.451-1.857-0.476c-0.046 0.038-0.108 0.103-0.186 0.196-0.078 0.093-0.159 0.199-0.244 0.319-0.095 0.123-0.19 0.254-0.287 0.393-0.096 0.139-0.182 0.275-0.259 0.408v0c-0.234 0.406-0.405 0.808-0.512 1.206-0.108 0.398-0.162 0.787-0.163 1.166-0.01 0.382 0.03 0.748 0.119 1.098 0.087 0.34 0.204 0.662 0.352 0.966v0l6.714 3.863-0.927 1.611-9.852-5.671z" fill="#211f1f" data-fill-palette-color="primary"></path><path d="M38.823 59.279l-6.652-4.915 0.935-1.619 9.311 6.879-1.104 1.494-1.494-1.104 0.512 1.162c0.024 0.096 0.037 0.232 0.039 0.407-0.004 0.171-0.025 0.369-0.061 0.594-0.046 0.227-0.12 0.468-0.221 0.724-0.106 0.261-0.257 0.524-0.452 0.788v0c-0.495 0.67-1.013 1.153-1.554 1.449-0.541 0.296-1.085 0.456-1.632 0.478-0.543 0.017-1.083-0.082-1.62-0.297-0.533-0.22-1.036-0.505-1.509-0.853v0l-5.572-4.116 0.935-1.619 5.741 4.24c0.36 0.266 0.711 0.469 1.051 0.608 0.341 0.139 0.677 0.196 1.009 0.171 0.337-0.021 0.665-0.135 0.984-0.343 0.323-0.214 0.645-0.537 0.965-0.971v0c0.237-0.321 0.402-0.638 0.495-0.952 0.093-0.314 0.143-0.612 0.151-0.893 0.008-0.281-0.016-0.538-0.071-0.77-0.059-0.226-0.121-0.407-0.186-0.542z" fill="#211f1f" data-fill-palette-color="primary"></path><path d="M43.811 43.866l-1.171 1.247c-0.431 0.459-0.737 0.959-0.917 1.5-0.186 0.536-0.253 1.077-0.201 1.625 0.042 0.548 0.193 1.083 0.452 1.604 0.269 0.521 0.633 0.997 1.093 1.428v0c0.444 0.416 0.894 0.719 1.351 0.907 0.456 0.188 0.898 0.286 1.323 0.292 0.421 0.001 0.809-0.075 1.166-0.23 0.356-0.155 0.659-0.365 0.908-0.63v0c0.225-0.24 0.395-0.503 0.509-0.789 0.12-0.281 0.205-0.571 0.255-0.869 0.045-0.293 0.066-0.581 0.061-0.864-0.009-0.277-0.027-0.524-0.053-0.741v0zM52.306 49l-1.415 1.508-1.217-1.142 0.239 1.448c-0.05 0.289-0.163 0.634-0.338 1.035-0.175 0.402-0.447 0.799-0.816 1.192v0c-0.426 0.454-0.91 0.806-1.451 1.056-0.537 0.245-1.115 0.36-1.734 0.345-0.614-0.01-1.263-0.168-1.946-0.472-0.678-0.31-1.369-0.795-2.073-1.456v0c-0.602-0.565-1.058-1.209-1.369-1.932-0.305-0.728-0.465-1.478-0.48-2.249-0.01-0.767 0.129-1.529 0.417-2.285 0.283-0.752 0.716-1.439 1.3-2.062v0l1.178-1.255-3.919-3.676 1.424-1.212 10.701 10.039z" fill="#211f1f" data-fill-palette-color="primary"></path><path d="M60.298 38.934l1.569 0.116c-0.025 0.306-0.073 0.612-0.143 0.919-0.07 0.307-0.183 0.613-0.337 0.918-0.149 0.3-0.345 0.599-0.589 0.896-0.233 0.298-0.526 0.597-0.879 0.895v0c-0.7 0.592-1.412 0.98-2.137 1.163-0.715 0.184-1.415 0.207-2.098 0.071-0.679-0.131-1.327-0.398-1.944-0.802-0.607-0.403-1.157-0.896-1.65-1.478v0c-0.316-0.374-0.593-0.777-0.83-1.208-0.233-0.426-0.417-0.866-0.553-1.32-0.136-0.453-0.214-0.914-0.235-1.382-0.025-0.474 0.021-0.934 0.137-1.381 0.111-0.443 0.291-0.874 0.54-1.296 0.248-0.411 0.58-0.793 0.996-1.145v0c0.566-0.479 1.158-0.82 1.776-1.022 0.613-0.207 1.22-0.281 1.82-0.221 0.601 0.06 1.183 0.25 1.748 0.57 0.574 0.321 1.096 0.759 1.566 1.314v0c0.136 0.16 0.282 0.344 0.438 0.551 0.152 0.201 0.292 0.399 0.42 0.593v0l-5.993 5.072c0.344 0.406 0.721 0.728 1.134 0.966 0.422 0.239 0.846 0.388 1.273 0.448 0.431 0.066 0.855 0.046 1.271-0.058 0.417-0.114 0.798-0.318 1.146-0.612v0c0.336-0.285 0.605-0.553 0.804-0.805 0.2-0.251 0.351-0.485 0.453-0.699 0.102-0.215 0.171-0.41 0.205-0.586 0.04-0.18 0.07-0.339 0.092-0.477zM54.063 38.602l3.524-2.984-0.291-0.344c-0.253-0.299-0.55-0.525-0.89-0.677-0.33-0.152-0.676-0.235-1.036-0.25-0.361-0.015-0.716 0.037-1.063 0.157-0.357 0.119-0.683 0.303-0.977 0.552v0c-0.352 0.298-0.615 0.617-0.787 0.954-0.167 0.334-0.272 0.67-0.315 1.009-0.038 0.334-0.027 0.656 0.032 0.964 0.063 0.313 0.147 0.586 0.252 0.817v0l0.302 1.299z" fill="#211f1f" data-fill-palette-color="primary"></path><path d="M67.551 22.979l1.385-1.176 3.355 11.93-1.889 1.008-9.382-7.405 1.455-1.223 6.301 4.981 1.782 1.688-0.9-2.276z" fill="#211f1f" data-fill-palette-color="primary"></path><path d="M87.23 23.18l1.034 1.558-1.84 0.943-0.761-1.485-0.342 1.472c-0.058 0.132-0.151 0.274-0.277 0.425-0.13 0.161-0.269 0.319-0.418 0.474-0.158 0.152-0.323 0.291-0.493 0.418-0.174 0.136-0.345 0.248-0.513 0.334v0c-0.461 0.236-0.961 0.402-1.502 0.498-0.544 0.09-1.072 0.094-1.587 0.011-0.517-0.089-1.001-0.281-1.451-0.577-0.447-0.29-0.81-0.705-1.087-1.247v0c-0.29-0.567-0.421-1.121-0.392-1.662 0.032-0.535 0.176-1.038 0.43-1.507 0.252-0.475 0.598-0.904 1.039-1.287 0.437-0.389 0.911-0.715 1.422-0.976v0c0.585-0.3 1.109-0.529 1.57-0.687 0.465-0.152 0.878-0.25 1.241-0.294v0l-0.201-0.392c-0.185-0.361-0.395-0.663-0.628-0.905-0.243-0.245-0.51-0.419-0.799-0.522-0.295-0.1-0.615-0.125-0.958-0.075-0.353 0.047-0.735 0.176-1.146 0.387v0c-0.386 0.198-0.708 0.39-0.966 0.577-0.255 0.193-0.488 0.376-0.699 0.547v0c-0.127 0.105-0.244 0.207-0.349 0.309-0.112 0.104-0.22 0.207-0.325 0.308v0l-1.295-0.893c0.201-0.252 0.453-0.519 0.757-0.801v0c0.248-0.237 0.544-0.487 0.889-0.75 0.335-0.266 0.777-0.54 1.325-0.821v0c0.704-0.361 1.354-0.572 1.951-0.634 0.588-0.065 1.128-0.008 1.621 0.171 0.49 0.189 0.93 0.487 1.319 0.893 0.383 0.409 0.726 0.91 1.028 1.501v0zM85.132 23.159l-1.182-2.307-0.59 0.208c-0.09 0.038-0.21 0.088-0.36 0.149-0.143 0.058-0.301 0.127-0.472 0.206v0l-0.495 0.23c-0.165 0.077-0.304 0.144-0.416 0.202v0c-0.342 0.176-0.666 0.381-0.97 0.615-0.298 0.231-0.541 0.486-0.729 0.763-0.185 0.268-0.303 0.56-0.353 0.876-0.044 0.313 0.022 0.641 0.197 0.984v0c0.144 0.28 0.335 0.5 0.575 0.661 0.239 0.16 0.505 0.272 0.797 0.335 0.292 0.063 0.594 0.069 0.906 0.019 0.306-0.047 0.606-0.145 0.898-0.295v0c0.567-0.29 1.021-0.661 1.364-1.112 0.343-0.451 0.619-0.962 0.83-1.534z" fill="#211f1f" data-fill-palette-color="primary"></path><path d="M109.674 10.077l-0.266-2.387 1.519-6.374 1.928-0.468-2.283 9.637 1.575 6.487-2.111 0.513-1.572-6.477-6.461-7.525 1.993-0.689 4.276 4.977z" fill="#211f1f" data-fill-palette-color="primary"></path><path d="M125.597 14.859v0c-0.757 0.096-1.47 0.035-2.139-0.183-0.67-0.218-1.267-0.558-1.791-1.021-0.525-0.469-0.961-1.042-1.308-1.717-0.347-0.675-0.573-1.429-0.679-2.262v0c-0.106-0.833-0.082-1.615 0.072-2.348 0.16-0.74 0.432-1.399 0.818-1.976 0.386-0.571 0.88-1.043 1.481-1.416 0.602-0.373 1.291-0.608 2.068-0.707v0c0.757-0.096 1.466-0.038 2.128 0.174 0.655 0.213 1.24 0.548 1.756 1.004 0.51 0.464 0.936 1.034 1.276 1.71 0.332 0.67 0.551 1.422 0.657 2.255v0c0.106 0.833 0.086 1.618-0.06 2.356-0.146 0.738-0.404 1.399-0.775 1.982-0.378 0.577-0.86 1.055-1.447 1.433-0.594 0.379-1.279 0.618-2.057 0.716zM128.023 8.89v0c-0.071-0.555-0.198-1.089-0.383-1.601-0.179-0.52-0.424-0.976-0.735-1.367-0.303-0.385-0.672-0.683-1.108-0.896-0.435-0.206-0.941-0.272-1.517-0.199v0c-0.548 0.07-1.01 0.241-1.384 0.515-0.373 0.28-0.665 0.624-0.874 1.031-0.216 0.408-0.356 0.86-0.42 1.355-0.064 0.495-0.064 0.996 0 1.502v0c0.071 0.555 0.202 1.089 0.394 1.601 0.193 0.519 0.448 0.969 0.764 1.352 0.317 0.383 0.7 0.676 1.149 0.88 0.442 0.205 0.951 0.271 1.528 0.198v0c0.541-0.069 0.992-0.239 1.352-0.511 0.367-0.279 0.651-0.622 0.853-1.029 0.203-0.4 0.333-0.846 0.391-1.34 0.058-0.487 0.055-0.984-0.01-1.491z" fill="#211f1f" data-fill-palette-color="primary"></path><path d="M142.949 10.689l-0.129-8.269 1.854-0.239 0.181 11.575-1.858 0.029-0.029-1.858-0.612 1.112c-0.062 0.078-0.162 0.17-0.3 0.278-0.138 0.1-0.308 0.204-0.51 0.312-0.208 0.101-0.445 0.189-0.709 0.263-0.272 0.074-0.572 0.114-0.901 0.119v0c-0.833 0.013-1.531-0.106-2.095-0.356-0.564-0.25-1.02-0.586-1.369-1.007-0.342-0.422-0.592-0.911-0.748-1.468-0.149-0.558-0.228-1.13-0.236-1.718v0l-0.109-6.926 1.855-0.239 0.111 7.136c0.007 0.448 0.059 0.849 0.155 1.205 0.097 0.355 0.255 0.657 0.476 0.905 0.221 0.255 0.511 0.447 0.87 0.575 0.366 0.127 0.818 0.187 1.357 0.178v0c0.399-0.006 0.751-0.068 1.057-0.184 0.306-0.117 0.573-0.257 0.802-0.422 0.228-0.165 0.418-0.339 0.569-0.524 0.144-0.184 0.25-0.343 0.318-0.477z" fill="#211f1f" data-fill-palette-color="primary"></path><path d="M154.728 4.944l-0.588 5.795c-0.046 0.452-0.057 0.835-0.032 1.147 0.018 0.304 0.067 0.555 0.145 0.753 0.078 0.205 0.189 0.353 0.334 0.446 0.138 0.091 0.302 0.147 0.49 0.165v0c0.327 0.033 0.651 0.027 0.972-0.017 0.32-0.038 0.625-0.095 0.914-0.171 0.281-0.07 0.535-0.143 0.761-0.218 0.219-0.083 0.39-0.14 0.513-0.169v0l0.584 1.314c-0.068 0.049-0.228 0.132-0.479 0.247-0.251 0.115-0.565 0.231-0.943 0.348-0.37 0.11-0.787 0.198-1.25 0.263-0.465 0.072-0.944 0.083-1.438 0.033v0c-0.62-0.063-1.106-0.228-1.458-0.496-0.346-0.26-0.601-0.596-0.763-1.006-0.155-0.41-0.238-0.879-0.248-1.407-0.01-0.521 0.015-1.078 0.075-1.67v0l0.563-5.544-2.997-0.305 0.168-1.65 2.997 0.305 0.218-2.151 1.912-0.956-0.334 3.289 4.98 0.506-0.376 1.629z" fill="#211f1f" data-fill-palette-color="primary"></path><path d="M168.08 8.19l-1.827 8.41-1.816-0.394 3.071-14.133 0.233-2.065 2.065 0.234-1.47 6.769 1.156-0.973c0.291-0.087 0.694-0.129 1.209-0.124 0.515 0.004 1.158 0.091 1.931 0.258v0c1.019 0.221 1.722 0.725 2.109 1.511 0.388 0.786 0.444 1.811 0.17 3.076v0l-1.602 7.374-1.918-0.416 1.555-7.159c0.098-0.451 0.144-0.842 0.137-1.173-0.012-0.339-0.065-0.623-0.159-0.851-0.099-0.236-0.241-0.421-0.427-0.555-0.193-0.135-0.419-0.231-0.679-0.287v0c-0.403-0.088-0.799-0.131-1.186-0.129-0.386-0.005-0.743 0.025-1.072 0.09-0.328 0.058-0.621 0.137-0.878 0.238-0.257 0.095-0.457 0.194-0.602 0.299z" fill="#211f1f" data-fill-palette-color="primary"></path><path d="M196.191 17.609l-3.727 7.653-1.651-0.804 4.976-10.22 1.744 0.616-0.828 1.698c0.252-0.181 0.446-0.324 0.583-0.429 0.137-0.105 0.241-0.182 0.312-0.233 0.062-0.048 0.099-0.076 0.111-0.085v0l0.033-0.02c0.084-0.029 0.193-0.054 0.328-0.073 0.137-0.026 0.298-0.038 0.483-0.034 0.182 0.011 0.378 0.04 0.588 0.088 0.22 0.045 0.449 0.125 0.688 0.242v0c0.346 0.168 0.609 0.355 0.789 0.559 0.177 0.195 0.3 0.407 0.368 0.635 0.062 0.225 0.08 0.467 0.055 0.727-0.029 0.266-0.071 0.545-0.127 0.837v0l1.127-0.829c0.09-0.026 0.225-0.046 0.403-0.061 0.175-0.008 0.372-0.005 0.592 0.008 0.216 0.02 0.44 0.055 0.672 0.106 0.226 0.048 0.439 0.121 0.641 0.219v0c0.466 0.227 0.798 0.486 0.998 0.778 0.2 0.292 0.296 0.623 0.288 0.992-0.006 0.363-0.089 0.766-0.251 1.209-0.168 0.44-0.378 0.921-0.632 1.443v0l-3.391 6.964-1.652-0.804 3.35-6.879c0.162-0.333 0.298-0.629 0.409-0.887 0.113-0.248 0.181-0.476 0.204-0.683 0.014-0.204-0.029-0.38-0.128-0.529-0.099-0.149-0.274-0.285-0.525-0.408v0c-0.126-0.061-0.298-0.099-0.518-0.112-0.213-0.01-0.438 0.005-0.675 0.045-0.234 0.034-0.464 0.089-0.689 0.167-0.231 0.074-0.413 0.176-0.546 0.306v0c-0.018 0.038-0.047 0.098-0.087 0.179-0.034 0.085-0.072 0.171-0.114 0.26-0.04 0.097-0.079 0.187-0.12 0.269v0l-3.363 6.907-1.67-0.813 3.257-6.691c0.162-0.333 0.303-0.638 0.423-0.915 0.122-0.283 0.198-0.534 0.226-0.753 0.029-0.219-0.004-0.415-0.1-0.586-0.099-0.18-0.28-0.335-0.544-0.464v0c-0.101-0.049-0.24-0.082-0.419-0.098-0.185-0.02-0.385-0.016-0.601 0.011-0.216 0.027-0.436 0.08-0.66 0.157-0.225 0.077-0.435 0.189-0.63 0.335z" fill="#211f1f" data-fill-palette-color="primary"></path><path d="M208.598 34.31v0c-0.645-0.407-1.157-0.907-1.536-1.501-0.378-0.594-0.623-1.236-0.733-1.927-0.107-0.696-0.08-1.415 0.082-2.156 0.162-0.742 0.466-1.468 0.914-2.179v0c0.448-0.71 0.964-1.299 1.547-1.766 0.594-0.469 1.223-0.805 1.887-1.006 0.661-0.196 1.342-0.246 2.044-0.151 0.701 0.095 1.383 0.351 2.046 0.768v0c0.645 0.407 1.156 0.902 1.532 1.487 0.37 0.581 0.609 1.211 0.718 1.892 0.099 0.683 0.065 1.393-0.103 2.131-0.17 0.728-0.478 1.448-0.926 2.158v0c-0.448 0.71-0.963 1.304-1.544 1.781-0.582 0.477-1.201 0.823-1.858 1.037-0.659 0.205-1.335 0.267-2.027 0.186-0.699-0.085-1.38-0.336-2.043-0.754zM214.264 31.244v0c0.298-0.474 0.539-0.967 0.722-1.48 0.193-0.515 0.293-1.023 0.302-1.522 0.011-0.489-0.085-0.955-0.286-1.396-0.205-0.435-0.554-0.808-1.045-1.118v0c-0.468-0.295-0.933-0.456-1.395-0.482-0.466-0.021-0.91 0.059-1.331 0.241-0.426 0.178-0.822 0.437-1.185 0.778-0.364 0.341-0.682 0.728-0.955 1.16v0c-0.298 0.474-0.536 0.969-0.713 1.486-0.181 0.523-0.271 1.033-0.27 1.53 0.001 0.497 0.11 0.967 0.328 1.41 0.211 0.439 0.562 0.814 1.053 1.123v0c0.462 0.291 0.918 0.446 1.369 0.466 0.461 0.017 0.898-0.067 1.313-0.252 0.411-0.179 0.795-0.442 1.153-0.787 0.354-0.339 0.668-0.725 0.94-1.157z" fill="#211f1f" data-fill-palette-color="primary"></path><path d="M229.822 35.691l1.541 0.963-10.354 6.811-1.533-1.494 4.216-11.184 1.606 1.016-2.839 7.514-1.068 2.209 1.896-1.547z" fill="#211f1f" data-fill-palette-color="primary"></path><path d="M234.792 52.899l0.007 1.573c-0.307-0.002-0.616-0.025-0.928-0.071-0.311-0.046-0.625-0.134-0.941-0.265-0.311-0.125-0.624-0.298-0.94-0.517-0.316-0.209-0.636-0.478-0.96-0.806v0c-0.645-0.652-1.086-1.332-1.325-2.041-0.239-0.699-0.317-1.394-0.234-2.087 0.078-0.687 0.294-1.354 0.648-2 0.355-0.636 0.803-1.223 1.346-1.759v0c0.348-0.345 0.728-0.652 1.14-0.922 0.407-0.265 0.831-0.483 1.272-0.654 0.441-0.171 0.895-0.285 1.36-0.342 0.47-0.062 0.933-0.052 1.388 0.03 0.45 0.077 0.894 0.222 1.334 0.437 0.429 0.215 0.836 0.516 1.219 0.905v0c0.522 0.527 0.907 1.091 1.157 1.691 0.254 0.595 0.375 1.194 0.361 1.797-0.013 0.604-0.157 1.199-0.432 1.787-0.275 0.597-0.671 1.152-1.189 1.663v0c-0.149 0.148-0.321 0.308-0.514 0.48-0.189 0.167-0.375 0.322-0.559 0.465v0l-5.522-5.581c-0.378 0.374-0.67 0.776-0.875 1.206-0.205 0.439-0.321 0.874-0.348 1.304-0.032 0.435 0.02 0.856 0.156 1.262 0.146 0.406 0.379 0.771 0.7 1.095v0c0.31 0.313 0.598 0.56 0.864 0.739 0.266 0.18 0.51 0.312 0.733 0.398 0.222 0.085 0.422 0.138 0.6 0.159 0.183 0.026 0.344 0.044 0.482 0.054zM234.639 46.657l3.249 3.282 0.32-0.317c0.279-0.276 0.481-0.589 0.606-0.94 0.125-0.341 0.182-0.692 0.169-1.053-0.013-0.361-0.093-0.71-0.239-1.047-0.147-0.347-0.355-0.657-0.626-0.931v0c-0.325-0.328-0.662-0.565-1.013-0.711-0.346-0.14-0.689-0.219-1.03-0.235-0.336-0.012-0.656 0.024-0.958 0.106-0.307 0.087-0.572 0.192-0.796 0.315v0l-1.271 0.402z" fill="#211f1f" data-fill-palette-color="primary"></path><path d="M244.734 55.238l-6.733 5.208-1.124-1.453 8.991-6.954 1.29 1.325-1.494 1.155c0.306-0.051 0.543-0.093 0.712-0.126 0.169-0.033 0.297-0.057 0.383-0.07 0.077-0.015 0.123-0.024 0.138-0.028v0l0.038-0.002c0.088 0.011 0.197 0.038 0.326 0.079 0.135 0.037 0.284 0.099 0.448 0.184 0.158 0.09 0.321 0.203 0.488 0.339 0.177 0.137 0.347 0.311 0.509 0.522v0c0.235 0.304 0.389 0.588 0.46 0.852 0.072 0.254 0.089 0.498 0.049 0.732-0.044 0.229-0.135 0.454-0.274 0.675-0.144 0.226-0.305 0.457-0.485 0.694v0l1.378-0.243c0.093 0.017 0.222 0.058 0.388 0.125 0.161 0.07 0.336 0.16 0.527 0.269 0.185 0.113 0.37 0.244 0.555 0.393 0.181 0.143 0.34 0.303 0.478 0.48v0c0.317 0.41 0.5 0.79 0.55 1.14 0.05 0.351-0.011 0.689-0.182 1.017-0.166 0.323-0.419 0.647-0.761 0.972-0.345 0.32-0.747 0.658-1.206 1.013v0l-6.128 4.739-1.123-1.453 6.052-4.681c0.293-0.227 0.546-0.431 0.759-0.614 0.212-0.172 0.373-0.346 0.486-0.521 0.102-0.176 0.142-0.353 0.12-0.531-0.022-0.177-0.119-0.377-0.29-0.598v0c-0.086-0.111-0.224-0.221-0.414-0.33-0.186-0.104-0.395-0.19-0.625-0.259-0.225-0.074-0.455-0.126-0.691-0.156-0.24-0.036-0.448-0.025-0.625 0.032v0c-0.033 0.026-0.086 0.066-0.158 0.122-0.068 0.061-0.14 0.122-0.218 0.182-0.079 0.07-0.154 0.132-0.226 0.188v0l-6.077 4.7-1.137-1.469 5.887-4.553c0.293-0.227 0.555-0.438 0.784-0.633 0.235-0.199 0.414-0.391 0.537-0.574 0.123-0.184 0.18-0.374 0.17-0.57-0.009-0.206-0.103-0.425-0.282-0.657v0c-0.068-0.089-0.179-0.18-0.332-0.274-0.157-0.1-0.338-0.185-0.543-0.257-0.205-0.071-0.426-0.122-0.662-0.152-0.236-0.03-0.473-0.023-0.713 0.021z" fill="#211f1f" data-fill-palette-color="primary"></path><path d="M252.183 76.778l-0.352 1.533c-0.298-0.071-0.594-0.165-0.886-0.281-0.293-0.116-0.578-0.273-0.857-0.472-0.274-0.193-0.54-0.432-0.797-0.717-0.26-0.276-0.51-0.61-0.752-1.004v0c-0.479-0.781-0.755-1.544-0.826-2.289-0.073-0.735 0.009-1.43 0.248-2.085 0.232-0.652 0.595-1.252 1.087-1.8 0.49-0.539 1.06-1.008 1.71-1.407v0c0.417-0.256 0.858-0.469 1.32-0.638 0.457-0.165 0.919-0.281 1.388-0.347 0.469-0.066 0.936-0.074 1.402-0.023 0.472 0.047 0.92 0.162 1.345 0.345 0.421 0.177 0.82 0.42 1.199 0.729 0.369 0.307 0.696 0.693 0.982 1.159v0c0.388 0.632 0.635 1.269 0.741 1.909 0.112 0.637 0.093 1.248-0.058 1.833-0.15 0.585-0.426 1.132-0.827 1.641-0.404 0.519-0.916 0.969-1.537 1.35v0c-0.179 0.11-0.382 0.226-0.61 0.35-0.222 0.12-0.439 0.228-0.65 0.325v0l-4.107-6.691c-0.453 0.278-0.829 0.603-1.126 0.974-0.3 0.381-0.512 0.778-0.636 1.191-0.13 0.417-0.175 0.838-0.135 1.265 0.05 0.429 0.194 0.837 0.432 1.225v0c0.231 0.376 0.455 0.681 0.674 0.917 0.218 0.235 0.426 0.42 0.623 0.553 0.197 0.134 0.38 0.231 0.548 0.292 0.172 0.067 0.325 0.121 0.457 0.163zM253.455 70.664l2.416 3.936 0.385-0.236c0.334-0.205 0.602-0.464 0.804-0.777 0.2-0.303 0.334-0.632 0.404-0.986 0.07-0.355 0.071-0.713 0.005-1.075-0.064-0.371-0.196-0.721-0.397-1.049v0c-0.242-0.394-0.516-0.701-0.825-0.923-0.305-0.215-0.621-0.37-0.95-0.463-0.325-0.088-0.644-0.126-0.957-0.115-0.319 0.015-0.601 0.057-0.846 0.126v0l-1.33 0.101z" fill="#211f1f" data-fill-palette-color="primary"></path><path d="M261.998 82.425l-7.801 3.661-0.789-1.682 10.289-4.829 0.98 1.592-1.805 0.847 1.36 0.058c0.13 0.078 0.268 0.176 0.415 0.292 0.154 0.113 0.316 0.261 0.487 0.444 0.167 0.192 0.343 0.426 0.527 0.703 0.184 0.277 0.371 0.618 0.562 1.023v0c0.232 0.494 0.362 0.978 0.391 1.451 0.026 0.467-0.049 0.908-0.226 1.324-0.17 0.412-0.433 0.791-0.788 1.135-0.356 0.345-0.797 0.641-1.323 0.887v0l-7.012 3.292-0.789-1.682 7.012-3.291c0.342-0.161 0.608-0.351 0.798-0.572 0.187-0.227 0.315-0.473 0.385-0.737 0.073-0.274 0.084-0.554 0.034-0.84-0.043-0.289-0.133-0.579-0.269-0.87v0c-0.14-0.298-0.313-0.568-0.52-0.811-0.198-0.24-0.413-0.452-0.646-0.636-0.224-0.181-0.447-0.335-0.669-0.463-0.222-0.128-0.423-0.226-0.603-0.296z" fill="#211f1f" data-fill-palette-color="primary"></path><path d="M269.433 98.216l-5.528 1.838c-0.432 0.144-0.785 0.29-1.059 0.441-0.27 0.141-0.479 0.288-0.627 0.441-0.155 0.155-0.245 0.317-0.27 0.488-0.027 0.164-0.01 0.335 0.05 0.514v0c0.104 0.312 0.242 0.605 0.414 0.88 0.166 0.277 0.343 0.531 0.531 0.764 0.179 0.228 0.349 0.429 0.51 0.604 0.166 0.166 0.287 0.299 0.365 0.398v0l-0.96 1.072c-0.073-0.042-0.213-0.154-0.421-0.336-0.208-0.182-0.442-0.421-0.703-0.717-0.252-0.292-0.503-0.636-0.753-1.033-0.256-0.394-0.463-0.827-0.62-1.298v0c-0.197-0.591-0.245-1.102-0.145-1.533 0.095-0.423 0.297-0.792 0.605-1.108 0.31-0.31 0.704-0.577 1.182-0.803 0.471-0.223 0.989-0.429 1.554-0.616v0l5.288-1.759-0.95-2.858 1.573-0.524 0.951 2.859 2.051-0.683 1.656 1.352-3.137 1.044 1.579 4.75-1.639 0.324z" fill="#211f1f" data-fill-palette-color="primary"></path><path d="M17.688 186.573l-5.578 1.715c-0.379-0.184-0.75-0.403-1.113-0.657-0.364-0.254-0.701-0.553-1.011-0.897-0.311-0.344-0.592-0.737-0.846-1.178-0.26-0.44-0.474-0.934-0.642-1.483v0c-0.292-0.95-0.339-1.839-0.14-2.669 0.19-0.834 0.568-1.595 1.132-2.281 0.56-0.677 1.276-1.278 2.148-1.802 0.873-0.517 1.841-0.939 2.904-1.266v0c0.669-0.206 1.328-0.361 1.977-0.465 0.651-0.098 1.276-0.136 1.875-0.115 0.608 0.025 1.182 0.12 1.723 0.283 0.549 0.168 1.055 0.419 1.516 0.752 0.455 0.336 0.86 0.761 1.215 1.274 0.364 0.518 0.657 1.138 0.879 1.86v0c0.232 0.756 0.332 1.508 0.299 2.258-0.033 0.75-0.204 1.432-0.513 2.046v0l-1.338-0.566c0.117-0.38 0.183-0.832 0.198-1.357 0.008-0.522-0.083-1.091-0.272-1.706v0c-0.164-0.535-0.379-0.982-0.642-1.34-0.257-0.36-0.558-0.648-0.903-0.864-0.338-0.218-0.71-0.367-1.115-0.448-0.401-0.089-0.829-0.126-1.285-0.11-0.456 0.016-0.932 0.074-1.429 0.176-0.496 0.101-1.001 0.231-1.516 0.389v0c-0.455 0.14-0.912 0.306-1.373 0.499-0.465 0.202-0.909 0.426-1.33 0.673-0.42 0.254-0.801 0.539-1.143 0.856-0.344 0.311-0.623 0.653-0.837 1.026-0.215 0.373-0.354 0.778-0.417 1.215-0.055 0.441-0.004 0.916 0.152 1.425v0c0.09 0.294 0.21 0.576 0.359 0.845 0.157 0.274 0.329 0.521 0.514 0.742 0.187 0.228 0.375 0.423 0.564 0.585 0.189 0.162 0.364 0.28 0.526 0.354v0l3.451-1.061-0.763-3.159 1.284-0.394z" fill="#211f1f" data-fill-palette-color="primary"></path><path d="M18.109 199.769l7.595-3.272 0.928 1.623-10.632 4.58-0.735-1.706 1.706-0.735-1.261-0.142c-0.096-0.027-0.219-0.085-0.371-0.172-0.145-0.09-0.306-0.207-0.483-0.352-0.173-0.154-0.344-0.339-0.514-0.556-0.172-0.223-0.323-0.485-0.453-0.787v0c-0.329-0.765-0.486-1.455-0.47-2.072 0.016-0.617 0.153-1.167 0.409-1.65 0.259-0.477 0.617-0.894 1.073-1.251 0.459-0.35 0.958-0.641 1.498-0.874v0l6.361-2.74 0.928 1.623-6.554 2.823c-0.411 0.177-0.763 0.378-1.055 0.603-0.292 0.225-0.51 0.487-0.656 0.786-0.152 0.302-0.218 0.643-0.199 1.023 0.022 0.387 0.139 0.828 0.352 1.322v0c0.158 0.366 0.349 0.669 0.574 0.907 0.225 0.238 0.457 0.432 0.696 0.58 0.239 0.148 0.473 0.257 0.7 0.327 0.225 0.063 0.413 0.1 0.563 0.112z" fill="#211f1f" data-fill-palette-color="primary"></path><path d="M30.12 204.284l-2.019 1.162 1.89 0.002c0.216 0.094 0.426 0.227 0.63 0.4 0.201 0.167 0.384 0.352 0.55 0.556 0.175 0.206 0.335 0.421 0.48 0.644 0.145 0.223 0.276 0.438 0.395 0.644v0c0.258 0.449 0.457 0.843 0.596 1.183 0.145 0.336 0.25 0.631 0.315 0.884 0.065 0.253 0.106 0.464 0.122 0.633 0.013 0.162 0.016 0.294 0.009 0.394v0l-2.294 1.926-0.957-1.241 1.344-1.368c-0.01-0.059-0.035-0.145-0.076-0.258-0.041-0.114-0.092-0.238-0.154-0.372-0.059-0.144-0.124-0.292-0.195-0.445-0.072-0.153-0.146-0.295-0.223-0.429v0c-0.234-0.406-0.496-0.756-0.785-1.049-0.29-0.293-0.599-0.535-0.927-0.726-0.325-0.2-0.662-0.35-1.009-0.449-0.338-0.096-0.675-0.156-1.012-0.18v0l-6.713 3.864-0.927-1.61 9.852-5.671z" fill="#211f1f" data-fill-palette-color="primary"></path><path d="M34.495 226.001l6.652-4.915 1.273 1.37-9.312 6.879-1.104-1.495 1.495-1.104-1.261 0.149c-0.099-0.005-0.233-0.032-0.4-0.083-0.162-0.054-0.345-0.132-0.551-0.233-0.204-0.111-0.412-0.252-0.626-0.424-0.218-0.178-0.425-0.399-0.621-0.664v0c-0.495-0.67-0.804-1.307-0.929-1.91-0.124-0.604-0.117-1.171 0.023-1.7 0.144-0.524 0.397-1.011 0.76-1.462 0.367-0.445 0.787-0.842 1.26-1.192v0l5.571-4.116 1.273 1.37-5.74 4.24c-0.36 0.266-0.657 0.542-0.89 0.827-0.233 0.285-0.386 0.59-0.46 0.914-0.079 0.328-0.066 0.675 0.039 1.042 0.109 0.372 0.324 0.774 0.644 1.207v0c0.237 0.321 0.492 0.572 0.765 0.753 0.273 0.181 0.543 0.317 0.809 0.407 0.267 0.09 0.519 0.143 0.757 0.159 0.234 0.01 0.425 0.004 0.573-0.019z" fill="#211f1f" data-fill-palette-color="primary"></path><path d="M49.531 232.85l-1.171-1.248c-0.431-0.459-0.91-0.796-1.437-1.011-0.523-0.22-1.059-0.321-1.609-0.304-0.55 0.007-1.093 0.123-1.63 0.349-0.537 0.235-1.035 0.568-1.495 0.999v0c-0.444 0.416-0.775 0.846-0.992 1.29-0.217 0.444-0.342 0.878-0.375 1.303-0.028 0.42 0.024 0.813 0.155 1.178 0.132 0.366 0.322 0.681 0.571 0.946v0c0.225 0.24 0.476 0.426 0.755 0.559 0.273 0.137 0.557 0.241 0.851 0.309 0.29 0.064 0.576 0.103 0.858 0.117 0.277 0.009 0.524 0.007 0.742-0.006v0zM43.865 241l-1.415-1.508 1.218-1.142-1.46 0.147c-0.285-0.069-0.622-0.203-1.012-0.404-0.39-0.201-0.769-0.497-1.138-0.89v0c-0.426-0.454-0.747-0.959-0.961-1.516-0.21-0.551-0.288-1.135-0.234-1.752 0.049-0.612 0.248-1.249 0.596-1.912 0.353-0.657 0.881-1.316 1.585-1.976v0c0.602-0.565 1.274-0.979 2.015-1.243 0.746-0.258 1.504-0.37 2.276-0.335 0.766 0.039 1.517 0.227 2.254 0.562 0.732 0.33 1.39 0.807 1.974 1.429v0l1.177 1.255 3.919-3.676 1.118 1.498-10.701 10.039z" fill="#211f1f" data-fill-palette-color="primary"></path><path d="M55.967 248.264l0.146 1.567c-0.306 0.025-0.616 0.029-0.931 0.01-0.314-0.019-0.635-0.079-0.96-0.18-0.321-0.097-0.648-0.241-0.982-0.433-0.333-0.181-0.675-0.42-1.028-0.718v0c-0.7-0.592-1.2-1.231-1.5-1.916-0.299-0.675-0.438-1.361-0.417-2.058 0.017-0.692 0.174-1.375 0.47-2.05 0.297-0.665 0.692-1.289 1.185-1.871v0c0.316-0.374 0.668-0.713 1.055-1.018 0.382-0.3 0.785-0.554 1.21-0.764 0.424-0.209 0.866-0.362 1.324-0.46 0.463-0.103 0.925-0.134 1.385-0.093 0.455 0.037 0.91 0.143 1.367 0.318 0.447 0.176 0.878 0.441 1.295 0.794v0c0.566 0.479 1 1.007 1.3 1.582 0.306 0.57 0.479 1.157 0.519 1.759 0.04 0.602-0.051 1.208-0.273 1.817-0.222 0.619-0.567 1.206-1.038 1.762v0c-0.136 0.16-0.292 0.335-0.47 0.524-0.173 0.183-0.345 0.354-0.516 0.512v0l-5.992-5.072c-0.344 0.406-0.599 0.832-0.765 1.277-0.166 0.456-0.243 0.899-0.232 1.33 0.007 0.436 0.096 0.851 0.267 1.244 0.182 0.392 0.446 0.735 0.793 1.029v0c0.336 0.285 0.645 0.505 0.926 0.66 0.281 0.155 0.536 0.266 0.765 0.331 0.229 0.065 0.433 0.101 0.612 0.105 0.184 0.009 0.346 0.013 0.485 0.012zM55.265 242.06l3.525 2.983 0.291-0.344c0.253-0.299 0.427-0.629 0.521-0.989 0.095-0.35 0.12-0.705 0.076-1.064-0.045-0.359-0.155-0.7-0.331-1.023-0.177-0.333-0.412-0.624-0.706-0.872v0c-0.352-0.298-0.71-0.504-1.071-0.618-0.357-0.109-0.706-0.157-1.048-0.144-0.336 0.018-0.651 0.081-0.944 0.19-0.298 0.114-0.553 0.242-0.765 0.384v0l-1.231 0.512z" fill="#211f1f" data-fill-palette-color="primary"></path><path d="M73.745 249.819l1.618 0.828-9.728 7.678-1.656-1.357 3.235-11.506 1.688 0.874-2.18 7.731-0.874 2.293 1.756-1.705z" fill="#211f1f" data-fill-palette-color="primary"></path><path d="M83.647 265.895l-0.661 1.749-1.84-0.943 0.761-1.485-1.395 0.582c-0.141 0.03-0.31 0.038-0.507 0.023-0.206-0.011-0.416-0.032-0.629-0.063-0.216-0.04-0.425-0.092-0.627-0.156-0.212-0.062-0.402-0.135-0.571-0.222v0c-0.461-0.236-0.888-0.545-1.281-0.928-0.39-0.389-0.702-0.816-0.936-1.281-0.23-0.472-0.356-0.977-0.379-1.515-0.026-0.532 0.1-1.069 0.378-1.611v0c0.29-0.567 0.664-0.996 1.12-1.289 0.453-0.287 0.945-0.463 1.475-0.53 0.533-0.073 1.083-0.042 1.651 0.091 0.571 0.128 1.112 0.322 1.623 0.584v0c0.585 0.3 1.077 0.591 1.475 0.874 0.395 0.289 0.716 0.567 0.963 0.836v0l0.201-0.393c0.185-0.361 0.307-0.707 0.367-1.038 0.057-0.341 0.043-0.658-0.042-0.953-0.091-0.298-0.257-0.572-0.499-0.822-0.245-0.259-0.572-0.494-0.983-0.704v0c-0.386-0.198-0.73-0.347-1.033-0.447-0.306-0.094-0.59-0.176-0.852-0.248v0c-0.159-0.042-0.311-0.077-0.454-0.103-0.15-0.03-0.297-0.058-0.441-0.084v0l-0.031-1.573c0.322 0.016 0.686 0.065 1.092 0.147v0c0.337 0.063 0.713 0.157 1.129 0.283 0.412 0.117 0.892 0.316 1.44 0.597v0c0.704 0.361 1.255 0.765 1.654 1.213 0.396 0.439 0.665 0.911 0.807 1.416 0.133 0.508 0.148 1.039 0.045 1.592-0.109 0.55-0.315 1.12-0.617 1.712v0zM82.438 264.179l1.183-2.307-0.513-0.357c-0.084-0.051-0.194-0.119-0.331-0.206-0.131-0.083-0.278-0.17-0.444-0.262v0l-0.476-0.268c-0.159-0.089-0.294-0.163-0.406-0.22v0c-0.342-0.176-0.698-0.318-1.066-0.428-0.362-0.107-0.71-0.156-1.045-0.147-0.326 0.006-0.631 0.081-0.918 0.226-0.28 0.147-0.508 0.392-0.683 0.735v0c-0.144 0.28-0.211 0.564-0.201 0.852 0.01 0.288 0.074 0.569 0.194 0.842 0.119 0.273 0.291 0.522 0.513 0.747 0.217 0.221 0.472 0.407 0.765 0.557v0c0.567 0.29 1.133 0.443 1.699 0.458 0.566 0.015 1.143-0.059 1.729-0.222z" fill="#211f1f" data-fill-palette-color="primary"></path><path d="M110.381 269.095l0.857-2.243 4.274-4.968 1.927 0.468-6.447 7.518-1.575 6.487-2.112-0.513 1.573-6.477-2.29-9.65 2.086 0.302 1.518 6.384z" fill="#211f1f" data-fill-palette-color="primary"></path><path d="M124.093 279.058v0c-0.757-0.096-1.432-0.334-2.025-0.713-0.594-0.379-1.087-0.858-1.479-1.436-0.391-0.586-0.67-1.249-0.837-1.989-0.167-0.741-0.197-1.527-0.091-2.361v0c0.106-0.833 0.325-1.584 0.657-2.255 0.34-0.676 0.768-1.246 1.286-1.709 0.516-0.456 1.113-0.79 1.788-1 0.676-0.21 1.402-0.266 2.179-0.167v0c0.757 0.096 1.429 0.33 2.017 0.701 0.581 0.37 1.064 0.841 1.449 1.411 0.378 0.577 0.647 1.235 0.807 1.975 0.154 0.732 0.178 1.514 0.072 2.348v0c-0.106 0.833-0.322 1.588-0.647 2.266-0.326 0.678-0.741 1.253-1.246 1.725-0.51 0.464-1.097 0.806-1.76 1.025-0.67 0.218-1.393 0.278-2.17 0.179zM127.935 273.886v0c0.071-0.555 0.08-1.104 0.029-1.647-0.043-0.549-0.166-1.051-0.369-1.507-0.197-0.448-0.48-0.83-0.849-1.144-0.37-0.308-0.843-0.499-1.419-0.572v0c-0.548-0.07-1.038-0.019-1.469 0.152-0.432 0.178-0.8 0.438-1.104 0.78-0.311 0.341-0.56 0.743-0.746 1.206-0.186 0.463-0.311 0.948-0.375 1.455v0c-0.071 0.555-0.077 1.105-0.019 1.648 0.057 0.55 0.191 1.051 0.402 1.5 0.211 0.45 0.508 0.83 0.892 1.14 0.377 0.309 0.853 0.5 1.429 0.573v0c0.541 0.069 1.021 0.017 1.438-0.156 0.425-0.179 0.786-0.44 1.083-0.782 0.297-0.336 0.534-0.736 0.713-1.2 0.178-0.457 0.299-0.939 0.364-1.446z" fill="#211f1f" data-fill-palette-color="primary"></path><path d="M142.865 276.773l0.129-8.269 1.861-0.181-0.181 11.575-1.857-0.029 0.029-1.858-0.647 1.092c-0.064 0.076-0.167 0.165-0.309 0.269-0.141 0.096-0.314 0.195-0.519 0.296-0.211 0.095-0.451 0.175-0.717 0.241-0.274 0.066-0.575 0.096-0.904 0.09v0c-0.833-0.013-1.527-0.153-2.083-0.42-0.556-0.268-1.002-0.617-1.337-1.05-0.329-0.432-0.563-0.929-0.701-1.491-0.131-0.562-0.192-1.137-0.183-1.724v0l0.108-6.927 1.86-0.18-0.111 7.136c-0.007 0.448 0.032 0.851 0.118 1.209 0.085 0.358 0.235 0.665 0.447 0.92 0.213 0.262 0.497 0.463 0.851 0.601 0.362 0.139 0.812 0.212 1.351 0.22v0c0.399 0.006 0.753-0.044 1.063-0.151 0.31-0.107 0.581-0.239 0.814-0.397 0.233-0.157 0.428-0.326 0.585-0.505 0.15-0.18 0.261-0.335 0.333-0.467z" fill="#211f1f" data-fill-palette-color="primary"></path><path d="M153.936 269.334l0.588 5.796c0.046 0.452 0.112 0.829 0.199 1.129 0.079 0.294 0.177 0.531 0.294 0.709 0.117 0.185 0.256 0.308 0.417 0.369 0.154 0.062 0.325 0.083 0.513 0.064v0c0.327-0.033 0.643-0.104 0.949-0.213 0.306-0.101 0.593-0.218 0.861-0.351 0.262-0.125 0.495-0.247 0.701-0.366 0.198-0.126 0.354-0.215 0.469-0.269v0l0.836 1.17c-0.057 0.062-0.197 0.175-0.419 0.338-0.223 0.163-0.507 0.34-0.854 0.53-0.34 0.182-0.731 0.352-1.172 0.509-0.44 0.164-0.908 0.272-1.402 0.322v0c-0.62 0.063-1.129-0.001-1.528-0.193-0.392-0.185-0.708-0.463-0.949-0.832-0.235-0.37-0.41-0.813-0.526-1.329-0.115-0.509-0.203-1.059-0.262-1.65v0l-0.563-5.545-2.997 0.304-0.168-1.649 2.997-0.305-0.218-2.151 1.68-1.32 0.334 3.289 4.981-0.506-0.042 1.671z" fill="#211f1f" data-fill-palette-color="primary"></path><path d="M166.882 268.381l1.828 8.41-1.816 0.394-3.07-14.133-0.644-1.976 1.976-0.644 1.47 6.769 0.649-1.365c0.229-0.2 0.578-0.405 1.048-0.614 0.47-0.21 1.091-0.398 1.864-0.566v0c1.019-0.221 1.868-0.055 2.546 0.499 0.679 0.554 1.156 1.464 1.431 2.729v0l1.602 7.374-1.918 0.417-1.555-7.159c-0.098-0.451-0.219-0.826-0.363-1.124-0.152-0.304-0.318-0.54-0.497-0.709-0.188-0.174-0.394-0.283-0.619-0.327-0.231-0.043-0.477-0.036-0.737 0.02v0c-0.403 0.088-0.781 0.213-1.132 0.375-0.353 0.155-0.666 0.331-0.938 0.526-0.274 0.188-0.508 0.382-0.701 0.582-0.194 0.193-0.336 0.366-0.424 0.522z" fill="#211f1f" data-fill-palette-color="primary"></path><path d="M193.805 259.573l3.726 7.652-1.651 0.805-4.977-10.22 1.56-0.993 0.827 1.699c0.013-0.31 0.02-0.551 0.022-0.723 0.002-0.172 0.005-0.302 0.008-0.389 0.001-0.078 0.001-0.125 0.002-0.141v0l0.005-0.038c0.029-0.084 0.077-0.185 0.144-0.303 0.064-0.124 0.154-0.258 0.272-0.401 0.12-0.136 0.264-0.273 0.431-0.409 0.171-0.145 0.375-0.276 0.615-0.392v0c0.346-0.168 0.655-0.261 0.927-0.277 0.263-0.019 0.505 0.015 0.727 0.102 0.215 0.09 0.417 0.225 0.606 0.405 0.192 0.187 0.385 0.392 0.58 0.616v0l0.043-1.398c0.035-0.087 0.102-0.205 0.201-0.355 0.102-0.143 0.225-0.296 0.371-0.46 0.149-0.158 0.315-0.313 0.497-0.465 0.177-0.148 0.366-0.272 0.568-0.369v0c0.466-0.227 0.875-0.329 1.228-0.306 0.353 0.022 0.673 0.151 0.958 0.385 0.282 0.228 0.548 0.542 0.798 0.943 0.243 0.403 0.492 0.866 0.745 1.388v0l3.391 6.964-1.651 0.804-3.35-6.879c-0.162-0.333-0.311-0.623-0.446-0.869-0.126-0.242-0.263-0.436-0.411-0.581-0.152-0.136-0.317-0.211-0.496-0.226-0.178-0.014-0.393 0.04-0.644 0.162v0c-0.126 0.061-0.262 0.174-0.408 0.338-0.139 0.161-0.267 0.348-0.381 0.56-0.118 0.205-0.216 0.42-0.293 0.644-0.084 0.228-0.116 0.434-0.096 0.619v0c0.018 0.038 0.047 0.098 0.087 0.179 0.046 0.079 0.091 0.162 0.134 0.25 0.052 0.091 0.098 0.178 0.138 0.26v0l3.364 6.907-1.671 0.814-3.257-6.691c-0.162-0.333-0.316-0.632-0.46-0.896-0.147-0.271-0.298-0.485-0.454-0.644-0.155-0.158-0.329-0.252-0.522-0.282-0.203-0.033-0.437 0.014-0.701 0.143v0c-0.101 0.049-0.213 0.139-0.336 0.269-0.13 0.133-0.25 0.293-0.362 0.479-0.111 0.187-0.206 0.392-0.284 0.617-0.077 0.225-0.119 0.459-0.124 0.703z" fill="#211f1f" data-fill-palette-color="primary"></path><path d="M214.959 257.864v0c-0.645 0.407-1.317 0.653-2.016 0.738-0.699 0.085-1.384 0.029-2.055-0.169-0.674-0.204-1.311-0.538-1.91-1.004-0.6-0.466-1.123-1.054-1.571-1.764v0c-0.448-0.71-0.756-1.43-0.926-2.158-0.167-0.738-0.199-1.45-0.094-2.137 0.109-0.681 0.357-1.317 0.744-1.909 0.388-0.592 0.913-1.097 1.577-1.514v0c0.645-0.407 1.313-0.654 2.002-0.741 0.684-0.083 1.356-0.027 2.016 0.168 0.659 0.205 1.285 0.542 1.879 1.012 0.584 0.467 1.1 1.056 1.547 1.766v0c0.448 0.71 0.761 1.431 0.941 2.162 0.179 0.731 0.224 1.438 0.135 2.123-0.099 0.683-0.335 1.319-0.707 1.909-0.378 0.594-0.899 1.1-1.562 1.518zM214.637 251.43v0c-0.298-0.474-0.64-0.904-1.024-1.29-0.382-0.396-0.796-0.706-1.242-0.929-0.437-0.221-0.898-0.336-1.384-0.344-0.481-0.003-0.968 0.151-1.459 0.461v0c-0.468 0.295-0.813 0.645-1.037 1.05-0.22 0.412-0.339 0.846-0.356 1.305-0.023 0.461 0.04 0.93 0.191 1.405 0.151 0.476 0.363 0.929 0.635 1.362v0c0.298 0.474 0.643 0.902 1.033 1.284 0.394 0.389 0.815 0.69 1.264 0.903 0.449 0.213 0.92 0.318 1.413 0.313 0.487-0.001 0.977-0.157 1.467-0.466v0c0.462-0.291 0.799-0.636 1.011-1.035 0.214-0.408 0.327-0.839 0.339-1.292 0.015-0.448-0.055-0.908-0.212-1.38-0.153-0.466-0.366-0.915-0.638-1.347z" fill="#211f1f" data-fill-palette-color="primary"></path><path d="M222.851 237.677l1.278-1.292 4.371 11.597-1.794 1.167-9.986-6.568 1.344-1.345 6.708 4.42 1.921 1.528-1.094-2.19z" fill="#211f1f" data-fill-palette-color="primary"></path><path d="M239.557 233.898l1.573-0.023c0.002 0.307-0.019 0.616-0.062 0.928-0.043 0.312-0.128 0.627-0.255 0.944-0.122 0.312-0.291 0.627-0.507 0.945-0.206 0.318-0.472 0.641-0.796 0.969v0c-0.645 0.652-1.32 1.1-2.027 1.346-0.696 0.246-1.391 0.331-2.084 0.256-0.688-0.071-1.357-0.28-2.007-0.627-0.64-0.348-1.231-0.79-1.773-1.327v0c-0.348-0.345-0.659-0.721-0.934-1.131-0.269-0.404-0.492-0.826-0.667-1.265-0.175-0.439-0.294-0.892-0.356-1.356-0.067-0.47-0.062-0.932 0.015-1.388 0.072-0.451 0.213-0.897 0.424-1.338 0.21-0.432 0.508-0.841 0.891-1.23v0c0.522-0.527 1.081-0.919 1.679-1.174 0.592-0.26 1.19-0.387 1.794-0.38 0.604 0.007 1.201 0.145 1.79 0.413 0.6 0.269 1.159 0.659 1.676 1.172v0c0.149 0.148 0.311 0.318 0.486 0.509 0.169 0.187 0.326 0.372 0.47 0.554v0l-5.522 5.581c0.378 0.374 0.783 0.661 1.214 0.862 0.441 0.201 0.877 0.312 1.308 0.334 0.436 0.027 0.856-0.029 1.261-0.17 0.405-0.151 0.767-0.387 1.087-0.71v0c0.31-0.313 0.553-0.604 0.73-0.873 0.177-0.268 0.307-0.514 0.39-0.736 0.083-0.223 0.134-0.424 0.152-0.602 0.024-0.183 0.04-0.344 0.05-0.483zM233.317 234.116l3.248-3.282-0.321-0.318c-0.279-0.276-0.594-0.474-0.946-0.596-0.342-0.122-0.694-0.174-1.054-0.158-0.361 0.017-0.709 0.1-1.045 0.251-0.346 0.15-0.654 0.362-0.925 0.635v0c-0.325 0.328-0.558 0.668-0.7 1.021-0.137 0.347-0.212 0.691-0.224 1.033-0.008 0.336 0.031 0.655 0.116 0.956 0.091 0.306 0.198 0.57 0.323 0.793v0l0.415 1.267z" fill="#211f1f" data-fill-palette-color="primary"></path><path d="M240.422 223.509l6.733 5.207-1.123 1.453-8.992-6.953 0.958-1.582 1.494 1.156c-0.126-0.283-0.226-0.502-0.301-0.657-0.075-0.155-0.13-0.273-0.164-0.353-0.034-0.07-0.054-0.113-0.061-0.127v0l-0.013-0.036c-0.011-0.088-0.013-0.2-0.005-0.336 0.002-0.14 0.024-0.3 0.066-0.48 0.047-0.176 0.116-0.361 0.205-0.557 0.088-0.206 0.214-0.414 0.377-0.625v0c0.235-0.304 0.472-0.524 0.709-0.659 0.227-0.134 0.459-0.211 0.696-0.231 0.233-0.015 0.473 0.017 0.723 0.095 0.255 0.082 0.519 0.181 0.793 0.295v0l-0.581-1.273c-0.007-0.094 0.001-0.23 0.023-0.406 0.028-0.173 0.07-0.366 0.128-0.578 0.063-0.208 0.143-0.42 0.24-0.637 0.093-0.211 0.208-0.406 0.345-0.582v0c0.317-0.41 0.638-0.683 0.965-0.82 0.327-0.137 0.67-0.163 1.03-0.079 0.354 0.079 0.732 0.243 1.132 0.491 0.397 0.254 0.824 0.558 1.284 0.914v0l6.127 4.738-1.123 1.453-6.053-4.681c-0.293-0.227-0.555-0.42-0.785-0.58-0.22-0.161-0.429-0.274-0.627-0.339-0.197-0.055-0.378-0.049-0.544 0.017-0.166 0.066-0.335 0.21-0.506 0.431v0c-0.086 0.111-0.157 0.272-0.215 0.484-0.053 0.206-0.085 0.43-0.093 0.671-0.015 0.236-0.007 0.472 0.023 0.708 0.026 0.241 0.089 0.44 0.188 0.596v0c0.033 0.026 0.086 0.066 0.158 0.122 0.076 0.05 0.153 0.105 0.23 0.165 0.087 0.059 0.167 0.116 0.239 0.172v0l6.078 4.7-1.137 1.47-5.886-4.553c-0.293-0.227-0.563-0.427-0.81-0.6-0.252-0.177-0.483-0.302-0.691-0.375-0.209-0.073-0.407-0.08-0.594-0.022-0.197 0.06-0.385 0.206-0.565 0.439v0c-0.068 0.089-0.129 0.219-0.182 0.39-0.057 0.177-0.094 0.374-0.112 0.59-0.017 0.217-0.011 0.443 0.02 0.679 0.03 0.236 0.097 0.464 0.199 0.685z" fill="#211f1f" data-fill-palette-color="primary"></path><path d="M257.896 208.811l1.527-0.381c0.071 0.298 0.122 0.604 0.151 0.918 0.029 0.314 0.018 0.639-0.034 0.977-0.048 0.332-0.141 0.677-0.278 1.036-0.128 0.356-0.313 0.731-0.555 1.125v0c-0.479 0.781-1.035 1.372-1.667 1.772-0.622 0.398-1.279 0.639-1.971 0.724-0.686 0.088-1.385 0.036-2.097-0.154-0.702-0.193-1.379-0.489-2.029-0.889v0c-0.417-0.256-0.806-0.552-1.166-0.888-0.354-0.332-0.667-0.693-0.938-1.08-0.271-0.388-0.489-0.801-0.656-1.24-0.172-0.442-0.272-0.894-0.301-1.355-0.033-0.455 0.003-0.922 0.108-1.399 0.107-0.468 0.303-0.935 0.588-1.4v0c0.388-0.632 0.844-1.141 1.367-1.525 0.518-0.388 1.071-0.648 1.66-0.779 0.589-0.131 1.202-0.133 1.838-0.005 0.646 0.125 1.278 0.378 1.899 0.759v0c0.179 0.11 0.375 0.238 0.588 0.385 0.207 0.144 0.402 0.288 0.585 0.433v0l-4.107 6.691c0.453 0.278 0.913 0.466 1.379 0.563 0.475 0.095 0.925 0.104 1.349 0.028 0.43-0.072 0.827-0.223 1.189-0.453 0.36-0.239 0.659-0.552 0.897-0.939v0c0.231-0.376 0.401-0.714 0.513-1.016 0.111-0.301 0.182-0.57 0.211-0.806 0.03-0.236 0.034-0.443 0.012-0.621-0.019-0.184-0.039-0.344-0.062-0.481zM251.869 210.444l2.416-3.936-0.385-0.236c-0.334-0.205-0.686-0.327-1.056-0.365-0.361-0.041-0.715-0.012-1.063 0.086-0.348 0.099-0.668 0.259-0.961 0.482-0.302 0.225-0.554 0.501-0.755 0.83v0c-0.242 0.394-0.391 0.778-0.449 1.153-0.054 0.369-0.049 0.721 0.016 1.056 0.069 0.33 0.179 0.631 0.331 0.906 0.158 0.278 0.323 0.51 0.495 0.698v0l0.693 1.139z" fill="#211f1f" data-fill-palette-color="primary"></path><path d="M256.874 197.252l7.8 3.661-0.79 1.682-10.289-4.829 0.599-1.771 1.805 0.847-0.825-1.083c-0.022-0.15-0.036-0.318-0.04-0.506-0.011-0.191-0.001-0.41 0.03-0.658 0.041-0.251 0.109-0.536 0.204-0.855 0.095-0.319 0.238-0.68 0.429-1.086v0c0.232-0.494 0.521-0.903 0.866-1.228 0.343-0.318 0.73-0.542 1.162-0.672 0.426-0.133 0.885-0.172 1.378-0.119 0.493 0.054 1.002 0.204 1.527 0.451v0l7.012 3.291-0.789 1.681-7.012-3.291c-0.342-0.161-0.659-0.243-0.95-0.248-0.294 0.001-0.565 0.059-0.813 0.175-0.257 0.119-0.48 0.289-0.668 0.509-0.195 0.218-0.361 0.472-0.497 0.764v0c-0.14 0.298-0.237 0.604-0.292 0.918-0.058 0.305-0.084 0.606-0.076 0.903 0.004 0.288 0.028 0.558 0.071 0.811 0.044 0.252 0.096 0.47 0.158 0.653z" fill="#211f1f" data-fill-palette-color="primary"></path><path d="M261.99 181.391l5.527 1.838c0.432 0.144 0.802 0.237 1.112 0.282 0.301 0.048 0.557 0.056 0.767 0.022 0.217-0.031 0.386-0.108 0.508-0.229 0.119-0.115 0.209-0.262 0.268-0.442v0c0.104-0.312 0.169-0.63 0.195-0.952 0.033-0.321 0.044-0.631 0.033-0.93-0.007-0.29-0.022-0.553-0.047-0.79-0.033-0.232-0.051-0.412-0.054-0.537v0l1.411-0.283c0.033 0.077 0.079 0.251 0.136 0.521 0.058 0.27 0.102 0.602 0.134 0.995 0.027 0.385 0.022 0.811-0.016 1.278-0.031 0.469-0.124 0.939-0.281 1.411v0c-0.197 0.591-0.464 1.029-0.803 1.315-0.33 0.281-0.712 0.456-1.148 0.525-0.434 0.062-0.909 0.04-1.427-0.065-0.511-0.104-1.049-0.249-1.613-0.438v0l-5.288-1.758-0.951 2.858-1.574-0.523 0.951-2.859-2.051-0.682-0.516-2.074 3.137 1.043 1.58-4.75 1.507 0.722z" fill="#211f1f" data-fill-palette-color="primary"></path><path d="M1.36 141.041c0-3.531 2.863-6.394 6.394-6.394 3.531 0 6.394 2.863 6.394 6.394 0 3.531-2.863 6.394-6.394 6.394-3.531 0-6.394-2.863-6.394-6.394z" fill="#211f1f" data-fill-palette-color="primary"></path><path d="M265.852 141.041c0-3.531 2.863-6.394 6.394-6.394 3.531 0 6.394 2.863 6.394 6.394 0 3.531-2.863 6.394-6.394 6.394-3.531 0-6.394-2.863-6.394-6.394z" fill="#211f1f" data-fill-palette-color="primary"></path></g><g id="text-1"></g></svg></g></svg></g></svg></g><g></g></svg></g><defs></defs></svg><rect width="280" height="280" fill="none" stroke="none" visibility="hidden"></rect></g></svg></g></svg>